<svg id="visual" viewBox="0 0 900 600" width="900" height="600" xmlns="http://www.w3.org/2000/svg" xmlns:xlink="http://www.w3.org/1999/xlink" version="1.1"><rect x="0" y="0" width="900" height="600" fill="#fbfbfc"></rect><path d="M0 420L21.5 412C43 404 86 388 128.8 392.3C171.7 396.7 214.3 421.3 257.2 433.2C300 445 343 444 385.8 440C428.7 436 471.3 429 514.2 425.3C557 421.7 600 421.3 642.8 425C685.7 428.7 728.3 436.3 771.2 432.7C814 429 857 414 878.5 406.5L900 399L900 601L878.5 601C857 601 814 601 771.2 601C728.3 601 685.7 601 642.8 601C600 601 557 601 514.2 601C471.3 601 428.7 601 385.8 601C343 601 300 601 257.2 601C214.3 601 171.7 601 128.8 601C86 601 43 601 21.5 601L0 601Z" fill="#13267d"></path><path d="M0 478L21.5 477.2C43 476.3 86 474.7 128.8 466.8C171.7 459 214.3 445 257.2 443.2C300 441.3 343 451.7 385.8 449.5C428.7 447.3 471.3 432.7 514.2 424.8C557 417 600 416 642.8 414.2C685.7 412.3 728.3 409.7 771.2 410.3C814 411 857 415 878.5 417L900 419L900 601L878.5 601C857 601 814 601 771.2 601C728.3 601 685.7 601 642.8 601C600 601 557 601 514.2 601C471.3 601 428.7 601 385.8 601C343 601 300 601 257.2 601C214.3 601 171.7 601 128.8 601C86 601 43 601 21.5 601L0 601Z" fill="#1a469e"></path><path d="M0 502L21.5 500.8C43 499.7 86 497.3 128.8 498.2C171.7 499 214.3 503 257.2 496.5C300 490 343 473 385.8 467.7C428.7 462.3 471.3 468.7 514.2 468.5C557 468.3 600 461.7 642.8 464.2C685.7 466.7 728.3 478.3 771.2 483.3C814 488.3 857 486.7 878.5 485.8L900 485L900 601L878.5 601C857 601 814 601 771.2 601C728.3 601 685.7 601 642.8 601C600 601 557 601 514.2 601C471.3 601 428.7 601 385.8 601C343 601 300 601 257.2 601C214.3 601 171.7 601 128.8 601C86 601 43 601 21.5 601L0 601Z" fill="#2567bd"></path><path d="M0 494L21.5 499.7C43 505.3 86 516.7 128.8 516.3C171.7 516 214.3 504 257.2 498.2C300 492.3 343 492.7 385.8 495C428.7 497.3 471.3 501.7 514.2 506.8C557 512 600 518 642.8 520.2C685.7 522.3 728.3 520.7 771.2 513.5C814 506.3 857 493.7 878.5 487.3L900 481L900 601L878.5 601C857 601 814 601 771.2 601C728.3 601 685.7 601 642.8 601C600 601 557 601 514.2 601C471.3 601 428.7 601 385.8 601C343 601 300 601 257.2 601C214.3 601 171.7 601 128.8 601C86 601 43 601 21.5 601L0 601Z" fill="#3789db"></path><path d="M0 565L21.5 564.5C43 564 86 563 128.8 562.3C171.7 561.7 214.3 561.3 257.2 561.3C300 561.3 343 561.7 385.8 560.2C428.7 558.7 471.3 555.3 514.2 550.3C557 545.3 600 538.7 642.8 540C685.7 541.3 728.3 550.7 771.2 550.7C814 550.7 857 541.3 878.5 536.7L900 532L900 601L878.5 601C857 601 814 601 771.2 601C728.3 601 685.7 601 642.8 601C600 601 557 601 514.2 601C471.3 601 428.7 601 385.8 601C343 601 300 601 257.2 601C214.3 601 171.7 601 128.8 601C86 601 43 601 21.5 601L0 601Z" fill="#4facf7"></path></svg>